ModelForces
version=1
nRows=4
nColumns=158
inDegrees=no

This file contains the forces exerted on a model during a simulation.

A force is a generalized force, meaning that it can be either a force (N) or a torque (Nm).

Units are S.I. units (second, meters, Newtons, ...)
Angles are in degrees.

endheader
time	glut_med1_r	glut_med2_r	glut_med3_r	glut_min1_r	glut_min2_r	glut_min3_r	semimem_r	semiten_r	bifemlh_r	bifemsh_r	sar_r	add_long_r	add_brev_r	add_mag1_r	add_mag2_r	add_mag3_r	tfl_r	pect_r	grac_r	glut_max1_r	glut_max2_r	glut_max3_r	iliacus_r	psoas_r	quad_fem_r	gem_r	peri_r	rect_fem_r	vas_med_r	vas_int_r	vas_lat_r	med_gas_r	lat_gas_r	soleus_r	tib_post_r	flex_dig_r	flex_hal_r	tib_ant_r	per_brev_r	per_long_r	per_tert_r	ext_dig_r	ext_hal_r	glut_med1_l	glut_med2_l	glut_med3_l	glut_min1_l	glut_min2_l	glut_min3_l	semimem_l	semiten_l	bifemlh_l	bifemsh_l	sar_l	add_long_l	add_brev_l	add_mag1_l	add_mag2_l	add_mag3_l	tfl_l	pect_l	grac_l	glut_max1_l	glut_max2_l	glut_max3_l	iliacus_l	psoas_l	quad_fem_l	gem_l	peri_l	rect_fem_l	vas_med_l	vas_int_l	vas_lat_l	med_gas_l	lat_gas_l	soleus_l	tib_post_l	flex_dig_l	flex_hal_l	tib_ant_l	per_brev_l	per_long_l	per_tert_l	ext_dig_l	ext_hal_l	ercspn_r	ercspn_l	intobl_r	intobl_l	extobl_r	extobl_l	femur_lat_meniscii_r.femur_lat_r.force.X	femur_lat_meniscii_r.femur_lat_r.force.Y	femur_lat_meniscii_r.femur_lat_r.force.Z	femur_lat_meniscii_r.femur_lat_r.torque.X	femur_lat_meniscii_r.femur_lat_r.torque.Y	femur_lat_meniscii_r.femur_lat_r.torque.Z	femur_lat_meniscii_r.meniscus_lat_r.force.X	femur_lat_meniscii_r.meniscus_lat_r.force.Y	femur_lat_meniscii_r.meniscus_lat_r.force.Z	femur_lat_meniscii_r.meniscus_lat_r.torque.X	femur_lat_meniscii_r.meniscus_lat_r.torque.Y	femur_lat_meniscii_r.meniscus_lat_r.torque.Z	femur_med_meniscii_r.femur_med_r.force.X	femur_med_meniscii_r.femur_med_r.force.Y	femur_med_meniscii_r.femur_med_r.force.Z	femur_med_meniscii_r.femur_med_r.torque.X	femur_med_meniscii_r.femur_med_r.torque.Y	femur_med_meniscii_r.femur_med_r.torque.Z	femur_med_meniscii_r.meniscus_med_r.force.X	femur_med_meniscii_r.meniscus_med_r.force.Y	femur_med_meniscii_r.meniscus_med_r.force.Z	femur_med_meniscii_r.meniscus_med_r.torque.X	femur_med_meniscii_r.meniscus_med_r.torque.Y	femur_med_meniscii_r.meniscus_med_r.torque.Z	femur_med_tibia_r.tibia_upper_r.force.X	femur_med_tibia_r.tibia_upper_r.force.Y	femur_med_tibia_r.tibia_upper_r.force.Z	femur_med_tibia_r.tibia_upper_r.torque.X	femur_med_tibia_r.tibia_upper_r.torque.Y	femur_med_tibia_r.tibia_upper_r.torque.Z	femur_med_tibia_r.femur_med_r.force.X	femur_med_tibia_r.femur_med_r.force.Y	femur_med_tibia_r.femur_med_r.force.Z	femur_med_tibia_r.femur_med_r.torque.X	femur_med_tibia_r.femur_med_r.torque.Y	femur_med_tibia_r.femur_med_r.torque.Z	femur_lat_tibia_r.tibia_upper_r.force.X	femur_lat_tibia_r.tibia_upper_r.force.Y	femur_lat_tibia_r.tibia_upper_r.force.Z	femur_lat_tibia_r.tibia_upper_r.torque.X	femur_lat_tibia_r.tibia_upper_r.torque.Y	femur_lat_tibia_r.tibia_upper_r.torque.Z	femur_lat_tibia_r.femur_lat_r.force.X	femur_lat_tibia_r.femur_lat_r.force.Y	femur_lat_tibia_r.femur_lat_r.force.Z	femur_lat_tibia_r.femur_lat_r.torque.X	femur_lat_tibia_r.femur_lat_r.torque.Y	femur_lat_tibia_r.femur_lat_r.torque.Z	aACL_R	pACL_R	aPCL_R	pPCL_R	aMCL_R	mMCL_R	pMCL_R	aLCL_R	mLCL_R	pLCL_R	aPCL_L	pPCL_L	aMCL_L	aLCL_L	ground_prescribedForce_0_fx	ground_prescribedForce_0_fy	ground_prescribedForce_0_fz
      0.74413311	      7.54769704	      5.66557835	      6.06452655	      2.65885641	      3.17886061	      3.19263470	      8.60195558	      4.07018018	      7.80908527	      7.27285089	      1.55625177	      5.61310580	      0.00000000	      2.91883435	      2.45364567	      3.98730915	      3.89935500	      2.23864663	      1.55190692	      3.65596133	      5.55583177	      4.14728589	     22.64728739	     12.96650082	      3.62656376	      2.85426559	      4.08993139	     10.64483347	      6.51413424	      6.60162454	      8.17815492	      5.05691431	      2.72305386	      9.09766563	     13.07070240	      2.88391314	      2.36368288	     17.08090592	      4.11589499	      8.46107211	     11.43933638	      9.44429116	      2.45632235	      7.54769704	      5.66557835	      6.06452655	      2.65885641	      3.17886061	      3.19263470	      8.74488123	      4.08309859	      7.68259414	      7.21580079	      1.51969803	      5.61310580	      3.11911286	      2.91883435	      2.45364567	      3.98730915	      4.09692979	      2.23864663	      1.55865512	      3.65596133	      5.55583177	      4.14728589	     22.64728739	     12.96650082	      3.62656376	      2.85426559	      4.08993139	     10.66681459	      6.59247519	      7.56209172	      8.13129322	     13.95298243	      6.47869106	     31.08617553	     42.35914453	      2.58350320	      2.84012557	      8.45153083	      4.33388867	     12.44641099	      2.00582984	      5.36236592	      1.70211209	     25.00584204	     25.00584204	      8.99985757	      8.99985757	     26.80448116	     26.80448116	     34.81640934	     80.26823482	      6.26399592	     -4.61793263	      0.87535682	     14.60946145	    -34.81640934	    -80.26823482	     -6.26399592	      2.62267979	     -1.05773349	     -1.18247423	     42.35664514	     78.52991023	      6.01290560	     -0.78751760	     -0.95289084	     17.97571521	    -42.35664514	    -78.52991023	     -6.01290560	     -1.12012617	      0.73173201	     -1.64933663	     -1.31589520	    -10.75722089	      3.57793388	     -0.23699309	     -0.02908317	     -0.17481482	      1.31589520	     10.75722089	     -3.57793388	      1.66864439	      0.02388767	      0.68572808	      0.00000000	      0.00000000	      0.00000000	      0.00000000	      0.00000000	      0.00000000	      0.00000000	      0.00000000	      0.00000000	      0.00000000	      0.00000000	      0.00000000	     19.51516908	     42.31149396	      0.00000000	      0.00000000	      0.00000000	      2.39900928	     42.60462789	      0.61391823	      0.00000000	      0.87596890	      0.00000000	      0.00000000	      0.00000001	      0.00000000	    110.00000000	      0.00000000	      0.00000000
      0.74496583	      7.54767383	      5.66556236	      6.06450922	      2.65884922	      3.17885284	      3.19262490	      8.60244311	      4.07036942	      7.80883018	      7.27251771	      1.53818311	      5.61308977	      0.00000000	      2.91882618	      2.45363863	      3.98729647	      3.89941050	      2.23864054	      1.55206616	      3.65595102	      5.55581605	      4.14727394	     22.64725839	     12.96646823	      3.62655374	      2.85426091	      4.08991254	     10.64510421	      6.51500710	      6.60220537	      8.17870913	      5.06490718	      2.72843896	      9.10928706	     13.08426134	      2.88563492	      2.35865032	     17.07733739	      4.11476922	      8.46477777	     11.43688101	      9.46144090	      2.46153923	      7.54767383	      5.66556236	      6.06450922	      2.65884922	      3.17885284	      3.19262490	      8.74484737	      4.08308616	      7.68256599	      7.21578085	      1.51969394	      5.61308977	      3.90216541	      2.91882618	      2.45363863	      3.98729647	      4.09692195	      2.23864054	      1.55865085	      3.65595102	      5.55581605	      4.14727394	     22.64725839	     12.96646823	      3.62655374	      2.85426091	      4.08991254	     10.66677629	      6.59245616	      7.56206947	      8.13126941	     13.95289337	      6.47864962	     31.08603269	     42.35908885	      2.58282755	      2.83981388	      8.45150202	      4.33387137	     12.44636818	      2.00582478	      5.36268687	      1.70219951	     25.00577429	     25.00577429	      8.99983102	      8.99983102	     26.80445731	     26.80445731	     34.80741944	     80.20441435	      6.27422115	     -4.62055870	      0.87508934	     14.60542717	    -34.80741944	    -80.20441435	     -6.27422115	      2.62097956	     -1.05739669	     -1.18192131	     42.28472280	     78.62951369	      5.96288981	     -0.76412640	     -0.95142471	     17.94544989	    -42.28472280	    -78.62951369	     -5.96288981	     -1.12382921	      0.73069258	     -1.64668494	     -1.31960798	    -10.78774134	      3.58743116	     -0.23765067	     -0.02915728	     -0.17531089	      1.31960798	     10.78774134	     -3.58743116	      1.67310393	      0.02394801	      0.68766620	      0.00000000	      0.00000000	      0.00000000	      0.00000000	      0.00000000	      0.00000000	      0.00000000	      0.00000000	      0.00000000	      0.00000000	      0.00000000	      0.00000000	     19.51769600	     42.31678536	      0.00000000	      0.00000000	      0.00000000	      2.39888634	     42.60293826	      0.60293158	      0.00000000	      0.86550152	      0.00000000	      0.00000000	      0.00000001	      0.00000000	    110.00000000	      0.00000000	      0.00000000
      0.74827070	      7.54758414	      5.66550055	      6.06444224	      2.65882144	      3.17882280	      3.19258704	      8.60419292	      4.07097663	      7.80742599	      7.26995635	      1.51561222	      5.61302782	      0.00000000	      2.91879457	      2.45361143	      3.98724749	      3.89939368	      2.23861700	      1.55237490	      3.65591117	      5.55575531	      4.14722776	     22.64714634	     12.96634227	      3.62651503	      2.85424280	      4.08983968	     10.64593597	      6.51775815	      6.60360010	      8.18007826	      5.09702059	      2.75024169	      9.15614483	     13.14728191	      2.89196955	      2.34139353	     17.06395853	      4.10788977	      8.47584463	     11.42510129	      9.53267502	      2.48048460	      7.54758414	      5.66550055	      6.06444224	      2.65882144	      3.17882280	      3.19258704	      8.74471652	      4.08303810	      7.68245722	      7.21570378	      1.51967814	      5.61302782	      5.70036681	      2.91879457	      2.45361143	      3.98724749	      4.09689166	      2.23861700	      1.55863436	      3.65591117	      5.55575531	      4.14722776	     22.64714634	     12.96634227	      3.62651503	      2.85424280	      4.08983968	     10.66662828	      6.59238261	      7.56198346	      8.13117741	     13.95254913	      6.47848947	     31.08548064	     42.35887365	      2.58013636	      2.83857570	      8.45139069	      4.33380448	     12.44620274	      2.00580524	      5.36396615	      1.70254751	     25.00551246	     25.00551246	      8.99972839	      8.99972839	     26.80436513	     26.80436513	     34.77577639	     79.95981783	      6.30723575	     -4.62798891	      0.87413632	     14.59112809	    -34.77577639	    -79.95981783	     -6.30723575	      2.61419487	     -1.05618617	     -1.17987672	     42.34908061	     78.77484312	      5.98516887	     -0.77008655	     -0.95293817	     17.97336053	    -42.34908061	    -78.77484312	     -5.98516887	     -1.12593995	      0.73199730	     -1.64975066	     -1.33486687	    -10.91085810	      3.62577456	     -0.24030118	     -0.02944874	     -0.17730412	      1.33486687	     10.91085810	     -3.62577456	      1.69110347	      0.02418285	      0.69558580	      0.00000000	      0.00000000	      0.00000000	      0.00000000	      0.00000000	      0.00000000	      0.00000000	      0.00000000	      0.00000000	      0.00000000	      0.00000000	      0.00000000	     19.53494374	     42.34545931	      0.00000000	      0.00000000	      0.00000000	      2.40782387	     42.60576281	      0.56799557	      0.00000000	      0.83239718	      0.00000000	      0.00000000	      0.00000001	      0.00000000	    110.00000000	      0.00000000	      0.00000000
      0.75061468	      7.54752280	      5.66545828	      6.06439643	      2.65880245	      3.17880225	      3.19256114	      8.60537182	      4.07134644	      7.80601264	      7.26743707	      1.51650908	      5.61298545	      0.00000000	      2.91877295	      2.45359282	      3.98721398	      3.89920558	      2.23860091	      1.55246799	      3.65588391	      5.55571377	      4.14719618	     22.64706971	     12.96625612	      3.62648856	      2.85423042	      4.08978984	     10.64634631	      6.51931552	      6.60412203	      8.18041484	      5.12027037	      2.76611769	      9.19028960	     13.20064537	      2.89612040	      2.33197700	     17.05500352	      4.10092271	      8.48032647	     11.41489807	      9.58472863	      2.49203033	      7.54752280	      5.66545828	      6.06439643	      2.65880245	      3.17880225	      3.19256114	      8.74462704	      4.08300524	      7.68238282	      7.21565107	      1.51966733	      5.61298545	      0.95712095	      2.91877295	      2.45359282	      3.98721398	      4.09687095	      2.23860091	      1.55862308	      3.65588391	      5.55571377	      4.14719618	     22.64706971	     12.96625612	      3.62648856	      2.85423042	      4.08978984	     10.66652705	      6.59233230	      7.56192465	      8.13111449	     13.95231362	      6.47837990	     31.08510309	     42.35872648	      2.57821813	      2.83769636	      8.45131454	      4.33375874	     12.44608958	      2.00579187	      5.36487875	      1.70279534	     25.00533340	     25.00533340	      8.99965821	      8.99965821	     26.80430208	     26.80430208	     34.75468080	     79.79647613	      6.32841408	     -4.63256854	      0.87347560	     14.58156657	    -34.75468080	    -79.79647613	     -6.32841408	      2.60960858	     -1.05535025	     -1.17847957	     42.39566065	     78.87378135	      6.00655009	     -0.77680972	     -0.95409863	     17.99351640	    -42.39566065	    -78.87378135	     -6.00655009	     -1.12710680	      0.73300110	     -1.65192336	     -1.34463164	    -10.99009103	      3.65044689	     -0.24200937	     -0.02963541	     -0.17858165	      1.34463164	     10.99009103	     -3.65044689	      1.70268581	      0.02433393	      0.70065690	      0.00000000	      0.00000000	      0.00000000	      0.00000000	      0.00000000	      0.00000000	      0.00000000	      0.00000000	      0.00000000	      0.00000000	      0.00000000	      0.00000000	     19.54674374	     42.36550994	      0.00000000	      0.00000000	      0.00000000	      2.41498972	     42.60842378	      0.54416944	      0.00000000	      0.80920276	      0.00000000	      0.00000000	      0.00000001	      0.00000000	    110.00000000	      0.00000000	      0.00000000
